<?xml version="1.0" standalone="no"?>
<!DOCTYPE svg PUBLIC "-//W3C//DTD SVG 20010904//EN"
 "http://www.w3.org/TR/2001/REC-SVG-20010904/DTD/svg10.dtd">
<svg version="1.0" xmlns="http://www.w3.org/2000/svg"
 width="4688.000000pt" height="4688.000000pt" viewBox="0 0 4688.000000 4688.000000"
 preserveAspectRatio="xMidYMid meet">

<g transform="translate(0.000000,4688.000000) scale(0.100000,-0.100000)"
fill="#000000" stroke="none">
<path d="M26151 33949 c-30 -5 -66 -16 -80 -23 -112 -60 -93 -56 -279 -56
-194 0 -253 -10 -297 -50 -40 -38 -94 -51 -179 -44 -84 7 -144 -6 -178 -41
-40 -40 -89 -55 -179 -55 l-82 0 -48 -45 -48 -45 -92 0 -91 0 -39 -42 c-38
-42 -40 -43 -119 -49 -70 -5 -84 -9 -119 -37 -51 -41 -81 -52 -138 -52 -42 0
-49 -4 -86 -45 -39 -43 -43 -45 -94 -45 -60 0 -84 -9 -128 -50 -17 -16 -47
-30 -70 -33 -31 -5 -50 -17 -86 -57 -47 -51 -48 -51 -93 -45 -42 7 -48 5 -68
-20 -59 -71 -65 -75 -115 -75 -43 0 -51 -4 -89 -45 -39 -43 -43 -45 -97 -45
-52 0 -57 -2 -78 -32 -33 -49 -48 -58 -99 -58 -41 0 -50 -4 -88 -44 -23 -25
-59 -50 -80 -57 -20 -7 -51 -22 -67 -35 -17 -13 -57 -33 -90 -45 -33 -13 -76
-35 -95 -49 -19 -15 -45 -32 -58 -39 -23 -12 -58 -58 -50 -66 2 -2 105 41 229
96 944 422 1875 715 2599 818 379 54 828 76 1086 52 832 -77 1444 -367 1895
-897 41 -48 82 -96 91 -105 10 -10 29 -38 44 -61 14 -24 32 -47 38 -53 7 -5
23 -32 35 -58 13 -27 38 -63 56 -80 18 -18 44 -57 57 -87 14 -30 32 -61 41
-68 9 -8 26 -43 38 -79 11 -36 34 -79 49 -97 30 -34 54 -104 44 -129 -8 -21
10 -51 54 -92 37 -33 37 -34 38 -117 0 -118 0 -116 47 -159 l42 -39 2 -119 c1
-122 9 -154 45 -179 39 -28 43 -51 49 -297 5 -222 8 -247 33 -335 58 -202 57
-189 53 -670 l-3 -445 -38 -155 -39 -155 -6 -355 c-6 -383 -4 -369 -64 -443
-20 -26 -22 -42 -27 -195 -5 -173 -10 -192 -55 -242 -34 -36 -44 -90 -43 -227
1 -130 2 -124 -56 -197 -26 -33 -29 -45 -35 -148 -7 -104 -20 -158 -40 -158
-4 0 -17 -17 -29 -39 -17 -30 -22 -55 -22 -109 0 -85 -10 -113 -55 -164 l-35
-38 0 -101 c0 -109 -5 -126 -53 -169 -30 -26 -32 -33 -35 -106 -4 -108 -6
-115 -52 -161 l-40 -41 0 -87 c0 -81 -2 -88 -26 -108 -71 -58 -76 -66 -73
-110 6 -97 1 -114 -46 -167 -43 -49 -45 -54 -43 -106 2 -54 1 -56 -45 -99
l-47 -43 0 -81 0 -80 -45 -51 c-41 -46 -45 -55 -45 -103 0 -58 -8 -72 -57
-106 -31 -21 -33 -26 -33 -78 0 -52 -2 -58 -45 -100 -40 -39 -45 -49 -45 -90
0 -42 -4 -50 -45 -87 -40 -37 -45 -47 -45 -84 0 -50 -22 -107 -55 -142 -13
-14 -28 -44 -34 -67 -7 -24 -29 -63 -51 -88 -22 -26 -40 -56 -40 -68 0 -42
-21 -98 -49 -130 -15 -17 -36 -57 -45 -87 -10 -30 -31 -69 -48 -86 -20 -22
-34 -51 -44 -97 -9 -40 -27 -80 -43 -101 -15 -19 -35 -55 -45 -79 -10 -27 -32
-57 -56 -76 -36 -29 -40 -36 -40 -77 0 -56 -11 -77 -53 -103 -18 -11 -40 -33
-47 -48 -8 -15 -29 -45 -47 -66 -24 -27 -33 -47 -33 -73 0 -29 -9 -45 -50 -88
-45 -47 -50 -57 -48 -95 1 -38 -3 -46 -50 -89 -47 -44 -52 -52 -52 -91 0 -35
-6 -48 -34 -74 -18 -18 -44 -48 -57 -67 -13 -19 -36 -46 -51 -58 -23 -19 -28
-32 -28 -68 0 -43 -4 -48 -95 -138 -92 -91 -95 -96 -95 -139 0 -44 -3 -49 -95
-142 -66 -67 -95 -103 -95 -120 0 -13 -11 -36 -23 -52 -13 -15 -36 -51 -51
-78 -14 -28 -40 -59 -57 -70 -17 -11 -37 -33 -46 -50 -9 -16 -28 -45 -44 -62
-15 -18 -33 -51 -39 -73 -6 -23 -28 -58 -53 -84 -23 -24 -86 -88 -139 -143
-54 -55 -98 -105 -98 -111 0 -6 -18 -32 -40 -57 -22 -25 -40 -52 -40 -60 0 -8
-18 -35 -40 -60 -22 -25 -40 -50 -40 -55 0 -5 -48 -57 -106 -117 -165 -168
-172 -176 -188 -213 -8 -20 -24 -44 -36 -55 -12 -11 -29 -34 -39 -52 -9 -17
-97 -115 -196 -218 -175 -181 -968 -973 -1152 -1151 -50 -49 -106 -109 -124
-133 -37 -50 -124 -96 -166 -88 -19 3 -35 -4 -63 -29 l-38 -34 -5 792 c-5 764
-9 896 -42 1333 -42 539 -121 1039 -240 1515 -59 237 -146 533 -175 595 -10
22 -25 65 -34 96 -9 31 -30 90 -47 130 -17 41 -34 86 -39 100 -58 186 -442
956 -520 1044 -10 11 -30 43 -44 70 -45 87 -106 179 -131 200 -13 11 -33 40
-43 65 -19 42 -76 126 -181 266 -25 32 -48 61 -51 64 -4 3 -12 15 -19 27 -10
20 -54 76 -224 286 -31 38 -101 120 -157 183 -77 87 -107 114 -126 114 -29 0
-50 -37 -40 -74 8 -33 88 -149 143 -209 40 -43 43 -50 37 -83 -6 -32 -3 -38
43 -82 28 -26 60 -68 73 -94 12 -27 26 -48 31 -48 18 0 39 -69 39 -126 0 -50
3 -59 31 -85 17 -16 35 -29 39 -29 14 0 23 -34 24 -91 1 -36 8 -64 19 -80 10
-13 28 -39 41 -57 14 -18 27 -55 31 -85 9 -64 29 -115 49 -123 9 -3 30 -36 47
-72 17 -37 42 -78 55 -90 22 -23 38 -85 34 -128 -5 -42 2 -57 45 -98 l45 -44
0 -96 0 -96 42 -46 43 -46 6 -127 c3 -69 10 -135 14 -146 5 -11 23 -34 42 -51
32 -31 33 -33 33 -115 0 -104 11 -145 49 -187 43 -47 52 -92 50 -259 -3 -172
3 -204 44 -255 16 -20 33 -56 38 -80 4 -24 8 -149 9 -279 0 -236 0 -237 34
-370 49 -192 56 -309 56 -952 0 -554 -5 -670 -35 -787 -45 -174 -48 -219 -55
-765 -6 -487 -8 -537 -28 -620 -33 -144 -59 -505 -64 -883 l-3 -253 43 -35
c39 -33 42 -39 42 -86 0 -49 1 -51 83 -130 93 -92 135 -115 236 -127 147 -19
275 19 415 121 808 594 1423 1121 2041 1749 582 593 1078 1179 1606 1899 755
1028 1424 2210 1931 3409 829 1959 1215 3969 1078 5604 -83 988 -342 1808
-779 2466 -35 53 -75 110 -88 126 -13 17 -53 68 -89 115 -144 188 -416 450
-508 490 -24 10 -58 36 -77 58 -51 59 -160 132 -198 132 -24 0 -42 10 -75 45
-40 41 -49 45 -91 45 -42 0 -51 4 -84 39 -44 48 -76 64 -106 57 -31 -8 -73 9
-110 44 -37 36 -94 49 -205 50 l-86 0 -44 45 -44 45 -151 0 c-140 0 -155 2
-201 25 -121 60 -109 59 -504 61 -201 1 -389 -2 -419 -7z"/>
<path d="M15526 33860 c-37 -5 -86 -22 -131 -45 l-73 -37 -128 1 -129 0 -47
-50 c-46 -50 -47 -50 -93 -44 -45 7 -47 7 -88 -39 -40 -42 -47 -46 -91 -46
-41 0 -51 -4 -74 -31 -15 -18 -38 -41 -51 -53 -107 -93 -199 -182 -226 -218
-17 -24 -66 -79 -107 -122 -70 -73 -76 -83 -81 -130 -4 -45 -9 -55 -51 -91
-46 -40 -46 -41 -46 -102 0 -75 -11 -105 -55 -155 l-35 -38 0 -109 c0 -122 -6
-144 -52 -203 l-33 -40 -6 -277 c-5 -187 -12 -303 -23 -361 -20 -107 -20 -283
0 -375 12 -52 18 -159 22 -410 l7 -340 40 -80 40 -80 5 -225 c4 -175 8 -230
20 -247 8 -13 18 -23 23 -23 4 0 16 -15 27 -32 18 -29 20 -51 20 -184 0 -165
-6 -143 67 -243 14 -20 19 -51 23 -144 l5 -119 37 -32 c48 -42 60 -75 52 -147
-9 -81 2 -124 41 -168 38 -42 58 -108 48 -164 -5 -34 -2 -40 46 -86 l52 -50
-3 -91 -3 -91 47 -42 47 -42 3 -77 c3 -71 6 -80 34 -110 45 -47 54 -69 54
-133 0 -62 9 -85 50 -130 17 -19 32 -50 39 -83 12 -60 32 -102 56 -122 24 -20
37 -58 36 -109 0 -52 18 -92 52 -110 33 -18 49 -55 41 -97 -6 -32 -3 -38 46
-83 50 -46 53 -51 48 -88 -7 -48 9 -88 51 -127 20 -19 31 -39 31 -57 0 -42 18
-80 56 -119 29 -31 35 -46 43 -107 10 -77 20 -102 62 -151 16 -18 31 -45 34
-60 4 -15 8 -37 11 -50 2 -12 20 -40 39 -61 22 -24 35 -49 35 -65 0 -33 33
-100 71 -144 16 -18 29 -44 29 -58 0 -29 36 -104 50 -104 13 0 40 -54 40 -80
0 -28 34 -93 65 -124 14 -14 25 -34 25 -46 0 -33 25 -82 59 -117 18 -19 31
-43 31 -58 0 -27 34 -98 75 -154 14 -19 25 -44 25 -57 0 -12 16 -44 37 -70 20
-27 42 -68 49 -91 15 -50 30 -81 53 -108 10 -11 26 -40 36 -65 10 -25 31 -59
46 -75 17 -18 33 -51 39 -80 6 -28 22 -68 35 -90 14 -22 36 -63 49 -92 14 -28
41 -67 61 -87 24 -25 35 -44 35 -65 0 -44 17 -82 54 -121 24 -25 35 -48 39
-78 4 -33 16 -54 51 -92 39 -41 46 -55 46 -89 0 -51 12 -81 48 -122 16 -19 33
-50 37 -69 10 -46 31 -88 65 -126 20 -23 29 -48 35 -90 8 -67 16 -85 56 -132
16 -18 34 -53 41 -79 6 -27 26 -63 47 -86 30 -34 36 -47 38 -93 2 -74 10 -92
43 -109 39 -20 50 -43 50 -105 0 -47 3 -54 45 -94 44 -44 45 -45 45 -109 0
-82 12 -114 56 -150 32 -27 34 -32 34 -89 0 -59 1 -61 47 -104 l47 -43 -2 -73
c-3 -91 11 -134 49 -153 39 -21 48 -42 47 -111 -1 -61 16 -108 48 -135 28 -23
44 -74 44 -141 0 -65 18 -116 47 -132 28 -16 43 -73 43 -169 0 -91 1 -94 33
-133 54 -63 57 -73 57 -216 1 -147 18 -248 47 -281 36 -40 38 -50 43 -214 l5
-161 31 -39 c17 -21 36 -48 43 -61 19 -36 19 -1679 0 -1714 -8 -14 -27 -48
-44 -74 l-30 -49 -3 -185 -3 -184 -45 -48 -44 -47 0 -99 c0 -106 4 -93 -67
-191 -11 -16 -19 -53 -23 -120 -6 -87 -22 -141 -42 -141 -3 0 -16 -15 -28 -34
-19 -31 -21 -54 -26 -214 l-5 -179 56 -52 c44 -40 72 -56 127 -72 100 -31 160
-23 354 46 922 329 1656 949 2210 1868 542 898 900 2118 1005 3420 13 158 10
175 -31 162 -37 -12 -50 -62 -50 -197 0 -167 -10 -222 -54 -287 -35 -51 -36
-56 -36 -143 l0 -90 -50 -48 -51 -49 7 -75 c9 -98 0 -140 -40 -184 -44 -48
-57 -98 -49 -187 7 -83 -1 -104 -60 -154 l-40 -35 7 -82 c7 -100 0 -122 -53
-157 -40 -27 -41 -28 -41 -87 0 -59 0 -59 -45 -90 l-45 -31 0 -63 c0 -51 -5
-69 -25 -97 -13 -19 -32 -45 -42 -58 -12 -16 -19 -48 -21 -95 -4 -70 -4 -71
-53 -117 -48 -45 -49 -47 -43 -91 7 -49 7 -49 -64 -105 -32 -25 -33 -29 -27
-72 7 -51 1 -62 -56 -104 -26 -19 -39 -38 -47 -70 -6 -24 -21 -52 -32 -62 -12
-11 -30 -40 -42 -66 -13 -32 -33 -56 -59 -73 -38 -26 -39 -28 -39 -85 0 -57
-2 -61 -37 -87 -35 -26 -100 -95 -189 -201 -19 -23 -40 -58 -45 -78 -11 -40
-53 -91 -197 -242 -53 -55 -131 -140 -172 -188 -41 -48 -93 -99 -115 -113 -22
-14 -100 -85 -173 -158 -104 -104 -140 -135 -167 -140 -19 -3 -45 -16 -57 -29
-13 -12 -39 -30 -58 -40 -19 -9 -53 -36 -76 -58 -59 -60 -144 -127 -161 -127
-8 0 -30 7 -48 16 -32 15 -35 14 -104 -20 -39 -20 -71 -34 -71 -31 0 2 18 69
40 147 98 350 163 705 206 1125 21 209 29 762 15 1008 -68 1166 -420 2412
-1129 3990 -171 382 -400 868 -702 1490 -139 286 -294 608 -345 715 -51 107
-113 238 -138 290 -740 1560 -1141 2752 -1266 3770 -36 290 -42 369 -48 670
-9 439 21 760 92 1004 86 297 204 436 418 493 85 23 308 23 443 0 617 -104
1238 -354 2764 -1109 849 -421 1465 -718 1777 -857 880 -392 1514 -625 2109
-774 488 -123 839 -170 1269 -171 276 -1 327 7 247 39 -23 10 -51 29 -62 42
-24 31 -73 42 -231 52 -105 6 -119 9 -147 33 -34 29 -125 54 -224 63 -52 5
-73 12 -94 32 -35 32 -94 53 -164 59 -35 2 -64 11 -80 24 -46 38 -124 70 -168
70 -35 0 -48 6 -70 29 -32 34 -92 61 -137 61 -20 0 -39 8 -51 21 -25 28 -107
69 -138 69 -13 0 -37 11 -53 24 -41 34 -82 53 -151 69 -36 8 -75 25 -94 42
-48 40 -197 124 -241 136 -21 5 -59 26 -83 45 -25 19 -58 37 -72 40 -41 8 -92
33 -92 44 0 14 -80 53 -120 57 -24 3 -44 14 -65 38 -34 38 -55 50 -107 59 -22
4 -45 17 -56 31 -21 27 -121 89 -218 135 -33 16 -66 36 -74 45 -20 24 -85 55
-116 55 -18 0 -39 12 -63 38 -31 33 -68 57 -232 152 -14 8 -51 32 -82 53 -33
22 -68 37 -86 37 -21 0 -37 9 -56 33 -38 45 -75 67 -111 67 -20 0 -39 9 -55
26 -13 15 -40 37 -59 50 -19 13 -55 40 -80 59 -29 22 -56 35 -77 35 -46 0 -60
8 -83 45 -12 20 -40 43 -68 56 -26 12 -59 33 -74 45 -15 12 -41 25 -58 29 -17
4 -45 22 -63 40 -36 37 -95 75 -116 75 -8 0 -26 11 -40 24 -15 13 -46 35 -72
48 -25 14 -65 38 -90 55 -25 17 -62 35 -82 38 -23 5 -45 18 -58 34 -27 35 -88
71 -120 71 -15 0 -36 11 -50 26 -33 37 -197 144 -220 144 -23 0 -69 21 -69 32
0 17 -84 68 -112 68 -19 0 -42 13 -71 39 -51 46 -78 61 -111 61 -14 0 -35 9
-47 21 -33 33 -90 69 -110 69 -10 0 -33 13 -52 30 -18 16 -56 36 -83 45 -27
10 -62 29 -79 45 -38 35 -67 50 -99 50 -16 0 -44 17 -76 45 -28 25 -54 45 -58
46 -4 1 -27 2 -50 3 -37 2 -50 8 -82 44 -32 34 -46 42 -74 42 -50 0 -86 17
-122 56 -23 25 -40 34 -63 34 -43 0 -90 21 -126 57 -24 23 -47 32 -104 42 -60
11 -81 20 -113 49 -35 32 -47 37 -104 40 -51 4 -68 9 -89 30 -14 13 -25 29
-25 34 0 15 -63 36 -96 31 -34 -5 -92 19 -101 42 -6 18 -127 57 -148 49 -31
-12 -106 7 -138 36 -50 44 -135 61 -280 58 -129 -3 -142 1 -207 52 -43 34
-274 50 -434 30z"/>
</g>
</svg>
